<mxfile host="app.diagrams.net" agent="Mozilla/5.0 (Windows NT 10.0; Win64; x64) AppleWebKit/537.36 (KHTML, like Gecko) Chrome/131.0.0.0 Safari/537.36" version="25.0.3">
  <diagram name="Trang-1" id="7YjnBuHY2fJDGZU4ErTu">
    <mxGraphModel dx="403" dy="691" grid="1" gridSize="10" guides="1" tooltips="1" connect="1" arrows="1" fold="1" page="1" pageScale="1" pageWidth="827" pageHeight="1169" math="0" shadow="0">
      <root>
        <mxCell id="0" />
        <mxCell id="1" parent="0" />
        <mxCell id="l0ODdzMfxoyIK-dmI_CK-10" value="Start" style="strokeWidth=2;html=1;shape=mxgraph.flowchart.start_1;whiteSpace=wrap;" vertex="1" parent="1">
          <mxGeometry x="350" y="330" width="100" height="60" as="geometry" />
        </mxCell>
        <mxCell id="l0ODdzMfxoyIK-dmI_CK-11" value="" style="endArrow=classic;html=1;rounded=0;exitX=0.5;exitY=1;exitDx=0;exitDy=0;exitPerimeter=0;" edge="1" parent="1" source="l0ODdzMfxoyIK-dmI_CK-10">
          <mxGeometry width="50" height="50" relative="1" as="geometry">
            <mxPoint x="390" y="600" as="sourcePoint" />
            <mxPoint x="400" y="440" as="targetPoint" />
          </mxGeometry>
        </mxCell>
        <mxCell id="l0ODdzMfxoyIK-dmI_CK-12" value="Input diem" style="shape=parallelogram;html=1;strokeWidth=2;perimeter=parallelogramPerimeter;whiteSpace=wrap;rounded=1;arcSize=12;size=0.23;fillColor=#a20025;strokeColor=#6F0000;fontColor=#ffffff;" vertex="1" parent="1">
          <mxGeometry x="350" y="440" width="100" height="60" as="geometry" />
        </mxCell>
        <mxCell id="l0ODdzMfxoyIK-dmI_CK-13" value="" style="endArrow=classic;html=1;rounded=0;exitX=0.5;exitY=1;exitDx=0;exitDy=0;" edge="1" parent="1" source="l0ODdzMfxoyIK-dmI_CK-12">
          <mxGeometry width="50" height="50" relative="1" as="geometry">
            <mxPoint x="440" y="520" as="sourcePoint" />
            <mxPoint x="400" y="560" as="targetPoint" />
          </mxGeometry>
        </mxCell>
        <mxCell id="l0ODdzMfxoyIK-dmI_CK-14" value="diem &amp;lt; 4&lt;div&gt;Yes : Không Đạt&lt;/div&gt;&lt;div&gt;No :&amp;nbsp;&lt;/div&gt;&lt;div&gt;diem &amp;gt;= 4 and diem &amp;lt;= 6&lt;/div&gt;&lt;div&gt;Yes : Trung Bình&lt;/div&gt;&lt;div&gt;No :&lt;/div&gt;&lt;div&gt;diem &amp;gt; 6 and diem &amp;lt;= 8&lt;/div&gt;&lt;div&gt;Yes : Khá&lt;/div&gt;&lt;div&gt;No :&lt;/div&gt;&lt;div&gt;diem &amp;gt; 8 and diem &amp;lt;= 9&lt;/div&gt;&lt;div&gt;Yes : Giỏi&lt;/div&gt;&lt;div&gt;No : Xuất sắc&lt;/div&gt;" style="strokeWidth=2;html=1;shape=mxgraph.flowchart.decision;whiteSpace=wrap;fillColor=#0050ef;strokeColor=#001DBC;fontColor=#ffffff;" vertex="1" parent="1">
          <mxGeometry x="265" y="560" width="270" height="270" as="geometry" />
        </mxCell>
        <mxCell id="l0ODdzMfxoyIK-dmI_CK-15" value="" style="endArrow=classic;html=1;rounded=0;exitX=0.5;exitY=1;exitDx=0;exitDy=0;exitPerimeter=0;entryX=0.5;entryY=0;entryDx=0;entryDy=0;entryPerimeter=0;" edge="1" parent="1" source="l0ODdzMfxoyIK-dmI_CK-14" target="l0ODdzMfxoyIK-dmI_CK-16">
          <mxGeometry width="50" height="50" relative="1" as="geometry">
            <mxPoint x="390" y="600" as="sourcePoint" />
            <mxPoint x="400" y="880" as="targetPoint" />
          </mxGeometry>
        </mxCell>
        <mxCell id="l0ODdzMfxoyIK-dmI_CK-16" value="End" style="strokeWidth=2;html=1;shape=mxgraph.flowchart.start_1;whiteSpace=wrap;fillColor=#6a00ff;fontColor=#ffffff;strokeColor=#3700CC;" vertex="1" parent="1">
          <mxGeometry x="350" y="880" width="100" height="60" as="geometry" />
        </mxCell>
      </root>
    </mxGraphModel>
  </diagram>
</mxfile>
